<svg width="0" height="0" class="hidden">
  <symbol fill="none" xmlns="http://www.w3.org/2000/svg" viewBox="0 0 15 15" id="search">
    <path d="M14 13.9999L10.8583 10.8583M12.5555 6.77776C12.5555 9.96872 9.96872 12.5555 6.77776 12.5555C3.58679 12.5555 1 9.96872 1 6.77776C1 3.58679 3.58679 1 6.77776 1C9.96872 1 12.5555 3.58679 12.5555 6.77776Z" stroke="#FCFCFC" stroke-width="2" stroke-linecap="round" stroke-linejoin="round"></path>
  </symbol>
  
  <symbol fill="none" xmlns="http://www.w3.org/2000/svg" viewBox="0 0 13 15" id="profile">
    <path d="M12 14V12.5556C12 11.7894 11.7103 11.0546 11.1945 10.5128C10.6788 9.97103 9.97935 9.66667 9.25 9.66667H3.75C3.02065 9.66667 2.32118 9.97103 1.80546 10.5128C1.28973 11.0546 1 11.7894 1 12.5556V14M9.25 3.88889C9.25 5.48438 8.01878 6.77778 6.5 6.77778C4.98122 6.77778 3.75 5.48438 3.75 3.88889C3.75 2.2934 4.98122 1 6.5 1C8.01878 1 9.25 2.2934 9.25 3.88889Z" stroke="#FCFCFC" stroke-width="2" stroke-linecap="round" stroke-linejoin="round"></path>
  </symbol>

  <symbol xmlns="http://www.w3.org/2000/svg" viewBox="0 0 33 40" id="pin">
    <path d="M28.1673 28.2842L16.5 40L4.83267 28.2842C2.52513 25.967 0.953675 23.0148 0.317035 19.8008C-0.319604 16.5869 0.00716255 13.2555 1.25601 10.228C2.50487 7.20049 4.61971 4.61285 7.33312 2.79229C10.0465 0.971723 13.2366 0 16.5 0C19.7634 0 22.9535 0.971723 25.6669 2.79229C28.3803 4.61285 30.4951 7.20049 31.744 10.228C32.9928 13.2555 33.3196 16.5869 32.683 19.8008C32.0463 23.0148 30.4749 25.967 28.1673 28.2842ZM16.5 20.2503C17.4725 20.2503 18.4051 19.8624 19.0927 19.1719C19.7804 18.4814 20.1667 17.5449 20.1667 16.5684C20.1667 15.5919 19.7804 14.6554 19.0927 13.9649C18.4051 13.2744 17.4725 12.8865 16.5 12.8865C15.5275 12.8865 14.5949 13.2744 13.9073 13.9649C13.2196 14.6554 12.8333 15.5919 12.8333 16.5684C12.8333 17.5449 13.2196 18.4814 13.9073 19.1719C14.5949 19.8624 15.5275 20.2503 16.5 20.2503Z"></path>
  </symbol>

  <symbol fill="none" xmlns="http://www.w3.org/2000/svg" viewBox="0 0 10 13" id="bookmark">
    <path d="M0.625 0H9.375C9.54076 0 9.69973 0.0663468 9.81694 0.184445C9.93415 0.302543 10 0.462718 10 0.629734V12.6847C10.0001 12.741 9.98516 12.7963 9.95681 12.8449C9.92847 12.8934 9.88773 12.9333 9.83884 12.9606C9.78995 12.9879 9.7347 13.0014 9.67884 12.9999C9.62299 12.9983 9.56856 12.9817 9.52125 12.9517L5 10.0946L0.47875 12.9511C0.43148 12.981 0.377117 12.9977 0.321314 12.9992C0.26551 13.0008 0.210304 12.9873 0.161434 12.9601C0.112565 12.9329 0.0718168 12.8931 0.0434268 12.8446C0.0150367 12.7962 4.15443e-05 12.741 0 12.6847V0.629734C0 0.462718 0.0658481 0.302543 0.183058 0.184445C0.300269 0.0663468 0.45924 0 0.625 0ZM8.75 1.25947H1.25V10.9775L5 8.6091L8.75 10.9775V1.25947Z" fill="#EC5118"></path>
  </symbol>

  <symbol fill="none" xmlns="http://www.w3.org/2000/svg" viewBox="0 0 14 14" id="level-easy">
    <circle cx="7" cy="7" r="6" stroke="#FCFCFC" stroke-width="2"></circle>
    <path d="M13 7C13 3.68629 10.3137 1 7 1" stroke="#061B28" stroke-width="2"></path>
  </symbol>

  <symbol fill="none" xmlns="http://www.w3.org/2000/svg" viewBox="0 0 14 14" id="level-mid">
    <circle cx="7" cy="7" r="6" stroke="#FCFCFC" stroke-width="2"></circle>
    <path d="M7 13C10.3137 13 13 10.3137 13 7C13 3.68629 10.3137 1 7 1" stroke="#061B28" stroke-width="2"></path>
  </symbol>

 <!-- > social icons < -->

  <symbol xmlns="http://www.w3.org/2000/svg" viewBox="0 0 11 20" id="facebook">
    <path d="M7.33333 11.5H9.95238L11 7.5H7.33333V5.5C7.33333 4.47 7.33333 3.5 9.42857 3.5H11V0.14C10.6585 0.0970001 9.36886 0 8.00695 0C5.16267 0 3.14286 1.657 3.14286 4.7V7.5H0V11.5H3.14286V20H7.33333V11.5Z"></path>
  </symbol>

  <symbol xmlns="http://www.w3.org/2000/svg" viewBox="0 0 20 20" id="inst">
    <path d="M10 0C12.717 0 13.056 0.00999994 14.122 0.0599999C15.187 0.11 15.912 0.277 16.55 0.525C17.21 0.779 17.766 1.123 18.322 1.678C18.8305 2.1779 19.224 2.78259 19.475 3.45C19.722 4.087 19.89 4.813 19.94 5.878C19.987 6.944 20 7.283 20 10C20 12.717 19.99 13.056 19.94 14.122C19.89 15.187 19.722 15.912 19.475 16.55C19.2247 17.2178 18.8311 17.8226 18.322 18.322C17.822 18.8303 17.2173 19.2238 16.55 19.475C15.913 19.722 15.187 19.89 14.122 19.94C13.056 19.987 12.717 20 10 20C7.283 20 6.944 19.99 5.878 19.94C4.813 19.89 4.088 19.722 3.45 19.475C2.78233 19.2245 2.17753 18.8309 1.678 18.322C1.16941 17.8222 0.775931 17.2175 0.525 16.55C0.277 15.913 0.11 15.187 0.0599999 14.122C0.0129999 13.056 0 12.717 0 10C0 7.283 0.00999994 6.944 0.0599999 5.878C0.11 4.812 0.277 4.088 0.525 3.45C0.775236 2.78218 1.1688 2.17732 1.678 1.678C2.17767 1.16923 2.78243 0.775729 3.45 0.525C4.088 0.277 4.812 0.11 5.878 0.0599999C6.944 0.0129999 7.283 0 10 0ZM10 5C8.67392 5 7.40215 5.52678 6.46447 6.46447C5.52678 7.40215 5 8.67392 5 10C5 11.3261 5.52678 12.5979 6.46447 13.5355C7.40215 14.4732 8.67392 15 10 15C11.3261 15 12.5979 14.4732 13.5355 13.5355C14.4732 12.5979 15 11.3261 15 10C15 8.67392 14.4732 7.40215 13.5355 6.46447C12.5979 5.52678 11.3261 5 10 5ZM16.5 4.75C16.5 4.41848 16.3683 4.10054 16.1339 3.86612C15.8995 3.6317 15.5815 3.5 15.25 3.5C14.9185 3.5 14.6005 3.6317 14.3661 3.86612C14.1317 4.10054 14 4.41848 14 4.75C14 5.08152 14.1317 5.39946 14.3661 5.63388C14.6005 5.8683 14.9185 6 15.25 6C15.5815 6 15.8995 5.8683 16.1339 5.63388C16.3683 5.39946 16.5 5.08152 16.5 4.75ZM10 7C10.7956 7 11.5587 7.31607 12.1213 7.87868C12.6839 8.44129 13 9.20435 13 10C13 10.7956 12.6839 11.5587 12.1213 12.1213C11.5587 12.6839 10.7956 13 10 13C9.20435 13 8.44129 12.6839 7.87868 12.1213C7.31607 11.5587 7 10.7956 7 10C7 9.20435 7.31607 8.44129 7.87868 7.87868C8.44129 7.31607 9.20435 7 10 7Z"></path>
  </symbol>

  <symbol xmlns="http://www.w3.org/2000/svg" viewBox="0 0 20 16" id="twitter">
    <path d="M19.999 1.89937C19.25 2.22538 18.4556 2.43949 17.6423 2.53461C18.4996 2.03012 19.1412 1.23616 19.4476 0.300674C18.6431 0.771788 17.761 1.10195 16.8416 1.28055C16.2241 0.630434 15.4056 0.199271 14.5133 0.0540959C13.621 -0.0910793 12.705 0.0578671 11.9076 0.477779C11.1103 0.897691 10.4762 1.56504 10.1041 2.37608C9.73199 3.18712 9.64261 4.09641 9.84988 4.96259C8.21832 4.88212 6.62219 4.46495 5.16512 3.73814C3.70805 3.01133 2.42261 1.99113 1.39227 0.743792C1.02756 1.36015 0.835906 2.06082 0.836931 2.77403C0.836931 4.17386 1.56103 5.41053 2.66189 6.13458C2.01041 6.1144 1.37327 5.94129 0.803571 5.62968V5.67988C0.803768 6.61216 1.13164 7.5157 1.7316 8.23728C2.33156 8.95886 3.16668 9.45408 4.09537 9.63898C3.4906 9.80024 2.85646 9.82401 2.24097 9.70849C2.50281 10.511 3.01315 11.2128 3.70054 11.7157C4.38793 12.2185 5.21794 12.4973 6.07437 12.513C5.2232 13.1707 4.2486 13.657 3.20632 13.9439C2.16403 14.2308 1.0745 14.3127 0 14.185C1.87568 15.3719 4.05916 16.002 6.28925 16C13.8373 16 17.9651 9.84751 17.9651 4.51175C17.9651 4.33797 17.9602 4.16227 17.9523 3.99043C18.7558 3.41908 19.4492 2.71129 20 1.90034L19.999 1.89937Z"></path>
  </symbol>
</svg>