<?xml version="1.0" standalone="no"?>
<!DOCTYPE svg PUBLIC "-//W3C//DTD SVG 20010904//EN"
 "http://www.w3.org/TR/2001/REC-SVG-20010904/DTD/svg10.dtd">
<svg version="1.0" xmlns="http://www.w3.org/2000/svg"
 width="512.000000pt" height="512.000000pt" viewBox="0 0 512.000000 512.000000"
 preserveAspectRatio="xMidYMid meet">
<metadata>
Created by potrace 1.14, written by Peter Selinger 2001-2017
</metadata>
<g transform="translate(0.000000,512.000000) scale(0.100000,-0.100000)"
fill="#000000" stroke="none">
<path d="M1694 4786 c-17 -8 -44 -31 -60 -52 l-29 -37 -3 -809 -2 -809 -184
-297 c-502 -815 -908 -1465 -1227 -1967 -126 -199 -180 -292 -184 -320 -8 -51
26 -121 74 -152 l34 -23 2444 0 c2683 0 2472 -5 2526 60 35 41 44 94 25 145
-21 57 -1294 2085 -1326 2113 -58 49 -144 50 -203 3 -13 -10 -177 -256 -364
-545 -187 -288 -342 -525 -345 -525 -3 0 -84 127 -180 282 -96 155 -309 495
-472 757 l-298 475 0 217 0 218 424 0 423 0 34 23 c69 47 96 121 68 194 -5 15
-63 81 -127 145 l-116 118 121 122 c73 74 124 134 128 151 17 67 -9 137 -69
181 -27 20 -41 21 -456 24 l-428 3 -4 109 c-3 117 -12 140 -70 183 -34 25
-113 32 -154 13z m274 -2384 c94 -149 176 -281 182 -292 9 -18 5 -28 -32 -69
l-43 -49 -115 113 c-88 87 -125 116 -157 126 -75 22 -111 3 -243 -126 l-115
-113 -42 47 -42 48 185 299 c102 164 192 310 201 323 l15 23 17 -28 c10 -16
95 -152 189 -302z m1800 -329 l71 -112 -78 -72 c-44 -39 -82 -71 -86 -71 -18
-1 -164 128 -161 142 1 8 38 68 81 133 63 96 80 116 90 105 7 -7 44 -63 83
-125z"/>
</g>
</svg>
